<svg width="467" height="528" viewBox="0 0 467 528" fill="none" xmlns="http://www.w3.org/2000/svg">
<circle cx="216" cy="6" r="6" fill="#B09696"/>
<circle cx="6" cy="6" r="6" fill="#B09696"/>
<circle cx="181" cy="6" r="6" fill="#B09696"/>
<circle cx="356" cy="6" r="6" fill="#B09696"/>
<circle cx="41" cy="6" r="6" fill="#B09696"/>
<circle cx="391" cy="6" r="6" fill="#B09696"/>
<circle cx="76" cy="6" r="6" fill="#B09696"/>
<circle cx="251" cy="6" r="6" fill="#B09696"/>
<circle cx="426" cy="6" r="6" fill="#B09696"/>
<circle cx="111" cy="6" r="6" fill="#B09696"/>
<circle cx="286" cy="6" r="6" fill="#B09696"/>
<circle cx="461" cy="6" r="6" fill="#B09696"/>
<circle cx="146" cy="6" r="6" fill="#B09696"/>
<circle cx="321" cy="6" r="6" fill="#B09696"/>
<circle cx="6" cy="41" r="6" fill="#B09696"/>
<circle cx="181" cy="41" r="6" fill="#B09696"/>
<circle cx="356" cy="41" r="6" fill="#B09696"/>
<circle cx="41" cy="41" r="6" fill="#B09696"/>
<circle cx="216" cy="41" r="6" fill="#B09696"/>
<circle cx="391" cy="41" r="6" fill="#B09696"/>
<circle cx="76" cy="41" r="6" fill="#B09696"/>
<circle cx="251" cy="41" r="6" fill="#B09696"/>
<circle cx="426" cy="41" r="6" fill="#B09696"/>
<circle cx="111" cy="41" r="6" fill="#B09696"/>
<circle cx="286" cy="41" r="6" fill="#B09696"/>
<circle cx="461" cy="41" r="6" fill="#B09696"/>
<circle cx="146" cy="41" r="6" fill="#B09696"/>
<circle cx="321" cy="41" r="6" fill="#B09696"/>
<circle cx="6" cy="76" r="6" fill="#B09696"/>
<circle cx="181" cy="76" r="6" fill="#B09696"/>
<circle cx="356" cy="76" r="6" fill="#B09696"/>
<circle cx="41" cy="76" r="6" fill="#B09696"/>
<circle cx="216" cy="76" r="6" fill="#B09696"/>
<circle cx="391" cy="76" r="6" fill="#B09696"/>
<circle cx="76" cy="76" r="6" fill="#B09696"/>
<circle cx="251" cy="76" r="6" fill="#B09696"/>
<circle cx="426" cy="76" r="6" fill="#B09696"/>
<circle cx="111" cy="76" r="6" fill="#B09696"/>
<circle cx="286" cy="76" r="6" fill="#B09696"/>
<circle cx="461" cy="76" r="6" fill="#B09696"/>
<circle cx="146" cy="76" r="6" fill="#B09696"/>
<circle cx="321" cy="76" r="6" fill="#B09696"/>
<circle cx="6" cy="111" r="6" fill="#B09696"/>
<circle cx="181" cy="111" r="6" fill="#B09696"/>
<circle cx="356" cy="111" r="6" fill="#B09696"/>
<circle cx="41" cy="111" r="6" fill="#B09696"/>
<circle cx="216" cy="111" r="6" fill="#B09696"/>
<circle cx="391" cy="111" r="6" fill="#B09696"/>
<circle cx="76" cy="111" r="6" fill="#B09696"/>
<circle cx="251" cy="111" r="6" fill="#B09696"/>
<circle cx="426" cy="111" r="6" fill="#B09696"/>
<circle cx="111" cy="111" r="6" fill="#B09696"/>
<circle cx="286" cy="111" r="6" fill="#B09696"/>
<circle cx="461" cy="111" r="6" fill="#B09696"/>
<circle cx="146" cy="111" r="6" fill="#B09696"/>
<circle cx="321" cy="111" r="6" fill="#B09696"/>
<circle cx="216" cy="143" r="6" fill="#B09696"/>
<circle cx="6" cy="143" r="6" fill="#B09696"/>
<circle cx="181" cy="143" r="6" fill="#B09696"/>
<circle cx="356" cy="143" r="6" fill="#B09696"/>
<circle cx="41" cy="143" r="6" fill="#B09696"/>
<circle cx="391" cy="143" r="6" fill="#B09696"/>
<circle cx="76" cy="143" r="6" fill="#B09696"/>
<circle cx="251" cy="143" r="6" fill="#B09696"/>
<circle cx="426" cy="143" r="6" fill="#B09696"/>
<circle cx="111" cy="143" r="6" fill="#B09696"/>
<circle cx="286" cy="143" r="6" fill="#B09696"/>
<circle cx="461" cy="143" r="6" fill="#B09696"/>
<circle cx="146" cy="143" r="6" fill="#B09696"/>
<circle cx="321" cy="143" r="6" fill="#B09696"/>
<circle cx="6" cy="178" r="6" fill="#B09696"/>
<circle cx="181" cy="178" r="6" fill="#B09696"/>
<circle cx="356" cy="178" r="6" fill="#B09696"/>
<circle cx="41" cy="178" r="6" fill="#B09696"/>
<circle cx="216" cy="178" r="6" fill="#B09696"/>
<circle cx="391" cy="178" r="6" fill="#B09696"/>
<circle cx="76" cy="178" r="6" fill="#B09696"/>
<circle cx="251" cy="178" r="6" fill="#B09696"/>
<circle cx="426" cy="178" r="6" fill="#B09696"/>
<circle cx="111" cy="178" r="6" fill="#B09696"/>
<circle cx="286" cy="178" r="6" fill="#B09696"/>
<circle cx="461" cy="178" r="6" fill="#B09696"/>
<circle cx="146" cy="178" r="6" fill="#B09696"/>
<circle cx="321" cy="178" r="6" fill="#B09696"/>
<circle cx="6" cy="213" r="6" fill="#B09696"/>
<circle cx="181" cy="213" r="6" fill="#B09696"/>
<circle cx="356" cy="213" r="6" fill="#B09696"/>
<circle cx="41" cy="213" r="6" fill="#B09696"/>
<circle cx="216" cy="213" r="6" fill="#B09696"/>
<circle cx="391" cy="213" r="6" fill="#B09696"/>
<circle cx="76" cy="213" r="6" fill="#B09696"/>
<circle cx="251" cy="213" r="6" fill="#B09696"/>
<circle cx="426" cy="213" r="6" fill="#B09696"/>
<circle cx="111" cy="213" r="6" fill="#B09696"/>
<circle cx="286" cy="213" r="6" fill="#B09696"/>
<circle cx="461" cy="213" r="6" fill="#B09696"/>
<circle cx="146" cy="213" r="6" fill="#B09696"/>
<circle cx="321" cy="213" r="6" fill="#B09696"/>
<circle cx="6" cy="248" r="6" fill="#B09696"/>
<circle cx="181" cy="248" r="6" fill="#B09696"/>
<circle cx="356" cy="248" r="6" fill="#B09696"/>
<circle cx="41" cy="248" r="6" fill="#B09696"/>
<circle cx="216" cy="248" r="6" fill="#B09696"/>
<circle cx="391" cy="248" r="6" fill="#B09696"/>
<circle cx="76" cy="248" r="6" fill="#B09696"/>
<circle cx="251" cy="248" r="6" fill="#B09696"/>
<circle cx="426" cy="248" r="6" fill="#B09696"/>
<circle cx="111" cy="248" r="6" fill="#B09696"/>
<circle cx="286" cy="248" r="6" fill="#B09696"/>
<circle cx="461" cy="248" r="6" fill="#B09696"/>
<circle cx="146" cy="248" r="6" fill="#B09696"/>
<circle cx="321" cy="248" r="6" fill="#B09696"/>
<circle cx="216" cy="280" r="6" fill="#B09696"/>
<circle cx="6" cy="280" r="6" fill="#B09696"/>
<circle cx="181" cy="280" r="6" fill="#B09696"/>
<circle cx="356" cy="280" r="6" fill="#B09696"/>
<circle cx="41" cy="280" r="6" fill="#B09696"/>
<circle cx="391" cy="280" r="6" fill="#B09696"/>
<circle cx="76" cy="280" r="6" fill="#B09696"/>
<circle cx="251" cy="280" r="6" fill="#B09696"/>
<circle cx="426" cy="280" r="6" fill="#B09696"/>
<circle cx="111" cy="280" r="6" fill="#B09696"/>
<circle cx="286" cy="280" r="6" fill="#B09696"/>
<circle cx="461" cy="280" r="6" fill="#B09696"/>
<circle cx="146" cy="280" r="6" fill="#B09696"/>
<circle cx="321" cy="280" r="6" fill="#B09696"/>
<circle cx="6" cy="315" r="6" fill="#B09696"/>
<circle cx="181" cy="315" r="6" fill="#B09696"/>
<circle cx="356" cy="315" r="6" fill="#B09696"/>
<circle cx="41" cy="315" r="6" fill="#B09696"/>
<circle cx="216" cy="315" r="6" fill="#B09696"/>
<circle cx="391" cy="315" r="6" fill="#B09696"/>
<circle cx="76" cy="315" r="6" fill="#B09696"/>
<circle cx="251" cy="315" r="6" fill="#B09696"/>
<circle cx="426" cy="315" r="6" fill="#B09696"/>
<circle cx="111" cy="315" r="6" fill="#B09696"/>
<circle cx="286" cy="315" r="6" fill="#B09696"/>
<circle cx="461" cy="315" r="6" fill="#B09696"/>
<circle cx="146" cy="315" r="6" fill="#B09696"/>
<circle cx="321" cy="315" r="6" fill="#B09696"/>
<circle cx="6" cy="350" r="6" fill="#B09696"/>
<circle cx="181" cy="350" r="6" fill="#B09696"/>
<circle cx="356" cy="350" r="6" fill="#B09696"/>
<circle cx="41" cy="350" r="6" fill="#B09696"/>
<circle cx="216" cy="350" r="6" fill="#B09696"/>
<circle cx="391" cy="350" r="6" fill="#B09696"/>
<circle cx="76" cy="350" r="6" fill="#B09696"/>
<circle cx="251" cy="350" r="6" fill="#B09696"/>
<circle cx="426" cy="350" r="6" fill="#B09696"/>
<circle cx="111" cy="350" r="6" fill="#B09696"/>
<circle cx="286" cy="350" r="6" fill="#B09696"/>
<circle cx="461" cy="350" r="6" fill="#B09696"/>
<circle cx="146" cy="350" r="6" fill="#B09696"/>
<circle cx="321" cy="350" r="6" fill="#B09696"/>
<circle cx="6" cy="385" r="6" fill="#B09696"/>
<circle cx="181" cy="385" r="6" fill="#B09696"/>
<circle cx="356" cy="385" r="6" fill="#B09696"/>
<circle cx="41" cy="385" r="6" fill="#B09696"/>
<circle cx="216" cy="385" r="6" fill="#B09696"/>
<circle cx="391" cy="385" r="6" fill="#B09696"/>
<circle cx="76" cy="385" r="6" fill="#B09696"/>
<circle cx="251" cy="385" r="6" fill="#B09696"/>
<circle cx="426" cy="385" r="6" fill="#B09696"/>
<circle cx="111" cy="385" r="6" fill="#B09696"/>
<circle cx="286" cy="385" r="6" fill="#B09696"/>
<circle cx="461" cy="385" r="6" fill="#B09696"/>
<circle cx="146" cy="385" r="6" fill="#B09696"/>
<circle cx="321" cy="385" r="6" fill="#B09696"/>
<circle cx="216" cy="417" r="6" fill="#B09696"/>
<circle cx="6" cy="417" r="6" fill="#B09696"/>
<circle cx="181" cy="417" r="6" fill="#B09696"/>
<circle cx="356" cy="417" r="6" fill="#B09696"/>
<circle cx="41" cy="417" r="6" fill="#B09696"/>
<circle cx="391" cy="417" r="6" fill="#B09696"/>
<circle cx="76" cy="417" r="6" fill="#B09696"/>
<circle cx="251" cy="417" r="6" fill="#B09696"/>
<circle cx="426" cy="417" r="6" fill="#B09696"/>
<circle cx="111" cy="417" r="6" fill="#B09696"/>
<circle cx="286" cy="417" r="6" fill="#B09696"/>
<circle cx="461" cy="417" r="6" fill="#B09696"/>
<circle cx="146" cy="417" r="6" fill="#B09696"/>
<circle cx="321" cy="417" r="6" fill="#B09696"/>
<circle cx="6" cy="452" r="6" fill="#B09696"/>
<circle cx="181" cy="452" r="6" fill="#B09696"/>
<circle cx="356" cy="452" r="6" fill="#B09696"/>
<circle cx="41" cy="452" r="6" fill="#B09696"/>
<circle cx="216" cy="452" r="6" fill="#B09696"/>
<circle cx="391" cy="452" r="6" fill="#B09696"/>
<circle cx="76" cy="452" r="6" fill="#B09696"/>
<circle cx="251" cy="452" r="6" fill="#B09696"/>
<circle cx="426" cy="452" r="6" fill="#B09696"/>
<circle cx="111" cy="452" r="6" fill="#B09696"/>
<circle cx="286" cy="452" r="6" fill="#B09696"/>
<circle cx="461" cy="452" r="6" fill="#B09696"/>
<circle cx="146" cy="452" r="6" fill="#B09696"/>
<circle cx="321" cy="452" r="6" fill="#B09696"/>
<circle cx="6" cy="487" r="6" fill="#B09696"/>
<circle cx="181" cy="487" r="6" fill="#B09696"/>
<circle cx="356" cy="487" r="6" fill="#B09696"/>
<circle cx="41" cy="487" r="6" fill="#B09696"/>
<circle cx="216" cy="487" r="6" fill="#B09696"/>
<circle cx="391" cy="487" r="6" fill="#B09696"/>
<circle cx="76" cy="487" r="6" fill="#B09696"/>
<circle cx="251" cy="487" r="6" fill="#B09696"/>
<circle cx="426" cy="487" r="6" fill="#B09696"/>
<circle cx="111" cy="487" r="6" fill="#B09696"/>
<circle cx="286" cy="487" r="6" fill="#B09696"/>
<circle cx="461" cy="487" r="6" fill="#B09696"/>
<circle cx="146" cy="487" r="6" fill="#B09696"/>
<circle cx="321" cy="487" r="6" fill="#B09696"/>
<circle cx="6" cy="522" r="6" fill="#B09696"/>
<circle cx="181" cy="522" r="6" fill="#B09696"/>
<circle cx="356" cy="522" r="6" fill="#B09696"/>
<circle cx="41" cy="522" r="6" fill="#B09696"/>
<circle cx="216" cy="522" r="6" fill="#B09696"/>
<circle cx="391" cy="522" r="6" fill="#B09696"/>
<circle cx="76" cy="522" r="6" fill="#B09696"/>
<circle cx="251" cy="522" r="6" fill="#B09696"/>
<circle cx="426" cy="522" r="6" fill="#B09696"/>
<circle cx="111" cy="522" r="6" fill="#B09696"/>
<circle cx="286" cy="522" r="6" fill="#B09696"/>
<circle cx="461" cy="522" r="6" fill="#B09696"/>
<circle cx="146" cy="522" r="6" fill="#B09696"/>
<circle cx="321" cy="522" r="6" fill="#B09696"/>
</svg>
