<svg width="126" height="94" viewBox="0 0 126 94" fill="none" xmlns="http://www.w3.org/2000/svg">
<rect x="13.0326" y="-1" width="95.2381" height="95" fill="black"/>
<g filter="url(#filter0_d)">
<path d="M39.6791 21.0781H50.9584V53.2725C50.9584 56.2588 50.2602 58.9229 48.8637 61.2646C47.4887 63.6064 45.5551 65.4219 43.0629 66.7109C40.5922 68 37.8314 68.6445 34.7807 68.6445C29.6674 68.6445 25.6928 67.3555 22.8568 64.7773C20.0209 62.1992 18.6029 58.5469 18.6029 53.8203H29.9467C29.9467 55.9688 30.3119 57.5264 31.0424 58.4932C31.7943 59.46 33.0404 59.9434 34.7807 59.9434C36.349 59.9434 37.5522 59.3633 38.39 58.2031C39.2494 57.0215 39.6791 55.3779 39.6791 53.2725V21.0781ZM94.9477 29.8115H80.8647V68H69.5531V29.8115H55.7279V21.0781H94.9477V29.8115ZM97.6547 57.4619C99.3734 57.4619 100.802 57.9775 101.941 59.0088C103.079 60.0186 103.649 61.3184 103.649 62.9082C103.649 64.498 103.079 65.8086 101.941 66.8398C100.802 67.8496 99.3734 68.3545 97.6547 68.3545C95.9145 68.3545 94.475 67.8389 93.3363 66.8076C92.2191 65.7764 91.6606 64.4766 91.6606 62.9082C91.6606 61.3398 92.2191 60.04 93.3363 59.0088C94.475 57.9775 95.9145 57.4619 97.6547 57.4619Z" fill="#FFFBFB"/>
<path d="M39.6791 21.0781V20.0781H38.6791V21.0781H39.6791ZM50.9584 21.0781H51.9584V20.0781H50.9584V21.0781ZM48.8637 61.2646L48.0048 60.7525L48.0013 60.7583L48.8637 61.2646ZM43.0629 66.7109L42.6035 65.8227L42.6003 65.8244L43.0629 66.7109ZM18.6029 53.8203V52.8203H17.6029V53.8203H18.6029ZM29.9467 53.8203H30.9467V52.8203H29.9467V53.8203ZM31.0424 58.4932L30.2444 59.0961L30.253 59.1071L31.0424 58.4932ZM38.39 58.2031L37.5813 57.615L37.5794 57.6176L38.39 58.2031ZM39.6791 22.0781H50.9584V20.0781H39.6791V22.0781ZM49.9584 21.0781V53.2725H51.9584V21.0781H49.9584ZM49.9584 53.2725C49.9584 56.0962 49.3002 58.5801 48.0048 60.7525L49.7226 61.7768C51.2201 59.2656 51.9584 56.4214 51.9584 53.2725H49.9584ZM48.0013 60.7583C46.7252 62.9317 44.9339 64.6173 42.6035 65.8227L43.5223 67.5992C46.1763 66.2264 48.2522 64.2811 49.726 61.771L48.0013 60.7583ZM42.6003 65.8244C40.2856 67.032 37.6859 67.6445 34.7807 67.6445V69.6445C37.977 69.6445 40.8988 68.968 43.5255 67.5975L42.6003 65.8244ZM34.7807 67.6445C29.8315 67.6445 26.1271 66.3989 23.5295 64.0374L22.1842 65.5173C25.2584 68.3121 29.5033 69.6445 34.7807 69.6445V67.6445ZM23.5295 64.0374C20.9492 61.6917 19.6029 58.3359 19.6029 53.8203H17.6029C17.6029 58.7578 19.0926 62.7067 22.1842 65.5173L23.5295 64.0374ZM18.6029 54.8203H29.9467V52.8203H18.6029V54.8203ZM28.9467 53.8203C28.9467 56.0373 29.315 57.8657 30.2445 59.096L31.8403 57.8903C31.3089 57.187 30.9467 55.9002 30.9467 53.8203H28.9467ZM30.253 59.1071C31.2649 60.4081 32.8685 60.9434 34.7807 60.9434V58.9434C33.2124 58.9434 32.3237 58.5118 31.8317 57.8792L30.253 59.1071ZM34.7807 60.9434C36.6343 60.9434 38.1548 60.2368 39.2007 58.7886L37.5794 57.6176C36.9495 58.4897 36.0638 58.9434 34.7807 58.9434V60.9434ZM39.1988 58.7913C40.2265 57.3782 40.6791 55.4996 40.6791 53.2725H38.6791C38.6791 55.2562 38.2724 56.6647 37.5813 57.615L39.1988 58.7913ZM40.6791 53.2725V21.0781H38.6791V53.2725H40.6791ZM94.9477 29.8115V30.8115H95.9477V29.8115H94.9477ZM80.8647 29.8115V28.8115H79.8647V29.8115H80.8647ZM80.8647 68V69H81.8647V68H80.8647ZM69.5531 68H68.5531V69H69.5531V68ZM69.5531 29.8115H70.5531V28.8115H69.5531V29.8115ZM55.7279 29.8115H54.7279V30.8115H55.7279V29.8115ZM55.7279 21.0781V20.0781H54.7279V21.0781H55.7279ZM94.9477 21.0781H95.9477V20.0781H94.9477V21.0781ZM94.9477 28.8115H80.8647V30.8115H94.9477V28.8115ZM79.8647 29.8115V68H81.8647V29.8115H79.8647ZM80.8647 67H69.5531V69H80.8647V67ZM70.5531 68V29.8115H68.5531V68H70.5531ZM69.5531 28.8115H55.7279V30.8115H69.5531V28.8115ZM56.7279 29.8115V21.0781H54.7279V29.8115H56.7279ZM55.7279 22.0781H94.9477V20.0781H55.7279V22.0781ZM93.9477 21.0781V29.8115H95.9477V21.0781H93.9477ZM101.941 59.0088L101.27 59.75L101.277 59.757L101.941 59.0088ZM101.941 66.8398L102.604 67.5881L102.612 67.581L101.941 66.8398ZM93.3363 66.8076L92.658 67.5425L92.6651 67.5488L93.3363 66.8076ZM93.3363 59.0088L92.665 58.2676L92.6581 58.274L93.3363 59.0088ZM97.6547 58.4619C99.1571 58.4619 100.337 58.9054 101.27 59.75L102.612 58.2676C101.267 57.0496 99.5898 56.4619 97.6547 56.4619V58.4619ZM101.277 59.757C102.191 60.5675 102.649 61.5899 102.649 62.9082H104.649C104.649 61.0468 103.968 59.4696 102.604 58.2606L101.277 59.757ZM102.649 62.9082C102.649 64.2268 102.191 65.2643 101.27 66.0986L102.612 67.581C103.968 66.3528 104.649 64.7693 104.649 62.9082H102.649ZM101.277 66.0917C100.345 66.918 99.1628 67.3545 97.6547 67.3545V69.3545C99.5841 69.3545 101.259 68.7812 102.604 67.588L101.277 66.0917ZM97.6547 67.3545C96.1272 67.3545 94.9378 66.9088 94.0076 66.0664L92.6651 67.5488C94.0123 68.7689 95.7017 69.3545 97.6547 69.3545V67.3545ZM94.0146 66.0728C93.1097 65.2375 92.6606 64.2074 92.6606 62.9082H90.6606C90.6606 64.7457 91.3286 66.3152 92.6581 67.5424L94.0146 66.0728ZM92.6606 62.9082C92.6606 61.609 93.1097 60.5789 94.0146 59.7436L92.6581 58.274C91.3286 59.5012 90.6606 61.0707 90.6606 62.9082H92.6606ZM94.0076 59.75C94.9378 58.9076 96.1272 58.4619 97.6547 58.4619V56.4619C95.7017 56.4619 94.0123 57.0475 92.6651 58.2676L94.0076 59.75Z" fill="black"/>
</g>
<defs>
<filter id="filter0_d" x="13.6029" y="20.0781" width="95.0459" height="57.5664" filterUnits="userSpaceOnUse" color-interpolation-filters="sRGB">
<feFlood flood-opacity="0" result="BackgroundImageFix"/>
<feColorMatrix in="SourceAlpha" type="matrix" values="0 0 0 0 0 0 0 0 0 0 0 0 0 0 0 0 0 0 127 0"/>
<feOffset dy="4"/>
<feGaussianBlur stdDeviation="2"/>
<feColorMatrix type="matrix" values="0 0 0 0 0 0 0 0 0 0 0 0 0 0 0 0 0 0 0.25 0"/>
<feBlend mode="normal" in2="BackgroundImageFix" result="effect1_dropShadow"/>
<feBlend mode="normal" in="SourceGraphic" in2="effect1_dropShadow" result="shape"/>
</filter>
</defs>
</svg>
