<svg width="87" height="81" viewBox="0 0 87 81" fill="none" xmlns="http://www.w3.org/2000/svg">
<path d="M23.8234 36.293C29.0055 45.8119 37.3544 53.5818 47.5387 58.4589L55.4557 51.0591C56.4274 50.1509 57.8669 49.8482 59.1264 50.2518C63.1569 51.4963 67.5113 52.1691 71.9737 52.1691C73.953 52.1691 75.5724 53.6827 75.5724 55.5326V67.2715C75.5724 69.1215 73.953 70.6351 71.9737 70.6351C38.1821 70.6351 10.7961 45.0383 10.7961 13.4543C10.7961 11.6043 12.4155 10.0907 14.3948 10.0907H26.9902C28.9695 10.0907 30.5889 11.6043 30.5889 13.4543C30.5889 17.6588 31.3086 21.6951 32.6401 25.4623C33.036 26.6395 32.7481 27.9513 31.7405 28.8931L23.8234 36.293Z" fill="black"/>
</svg>
